<svg width="39" height="39" viewBox="0 0 39 39" fill="none" xmlns="http://www.w3.org/2000/svg">
<path d="M13.0835 27.25V9.79545H20.0721C21.3562 9.79545 22.4272 9.9858 23.2852 10.3665C24.1431 10.7472 24.788 11.2756 25.2198 11.9517C25.6516 12.6222 25.8675 13.3949 25.8675 14.2699C25.8675 14.9517 25.7312 15.5511 25.4585 16.0682C25.1857 16.5795 24.8107 17 24.3335 17.3295C23.8619 17.6534 23.3221 17.8835 22.7141 18.0199V18.1903C23.3789 18.2187 24.0011 18.4062 24.5806 18.7528C25.1658 19.0994 25.6403 19.5852 26.0039 20.2102C26.3675 20.8295 26.5494 21.5682 26.5494 22.4261C26.5494 23.3523 26.3192 24.179 25.859 24.9062C25.4045 25.6278 24.7312 26.1989 23.8391 26.6193C22.9471 27.0398 21.8477 27.25 20.5408 27.25H13.0835ZM16.7738 24.233H19.7823C20.8107 24.233 21.5607 24.0369 22.0323 23.6449C22.5039 23.2472 22.7397 22.7187 22.7397 22.0597C22.7397 21.5767 22.6232 21.1506 22.3903 20.7812C22.1573 20.4119 21.8249 20.1222 21.3931 19.9119C20.967 19.7017 20.4585 19.5966 19.8675 19.5966H16.7738V24.233ZM16.7738 17.0994H19.5096C20.0153 17.0994 20.4641 17.0114 20.8562 16.8352C21.2539 16.6534 21.5664 16.3977 21.7937 16.0682C22.0266 15.7386 22.1431 15.3438 22.1431 14.8835C22.1431 14.2528 21.9187 13.7443 21.4698 13.358C21.0266 12.9716 20.396 12.7784 19.5778 12.7784H16.7738V17.0994Z" fill="black"/>
</svg>
