<svg width="39" height="39" viewBox="0 0 39 39" fill="none" xmlns="http://www.w3.org/2000/svg">
<path d="M14.75 10.7193L31.625 10.7193" stroke="#E0E0E0" stroke-width="3" stroke-linecap="round"/>
<path d="M14.75 19.7194L31.625 19.7194" stroke="#E0E0E0" stroke-width="3" stroke-linecap="round"/>
<path d="M14.75 28.7194L31.625 28.7194" stroke="#E0E0E0" stroke-width="3" stroke-linecap="round"/>
<path d="M9.1282 7.70455V14.25H7.74432V9.01811H7.70597L6.20703 9.95774V8.73047L7.82741 7.70455H9.1282Z" fill="#E0E0E0"/>
<path d="M6.28054 23.25V22.2528L8.61044 20.0955C8.80859 19.9038 8.97479 19.7312 9.10902 19.5778C9.24538 19.4244 9.34872 19.2741 9.41903 19.1271C9.48935 18.978 9.5245 18.8171 9.5245 18.6445C9.5245 18.4528 9.48082 18.2876 9.39347 18.1491C9.30611 18.0085 9.18679 17.9009 9.03551 17.8263C8.88423 17.7496 8.71271 17.7113 8.52095 17.7113C8.32067 17.7113 8.14595 17.7518 7.9968 17.8327C7.84766 17.9137 7.7326 18.0298 7.65163 18.1811C7.57067 18.3324 7.53018 18.5124 7.53018 18.7212H6.21662C6.21662 18.293 6.31357 17.9212 6.50746 17.6058C6.70135 17.2905 6.97301 17.0465 7.32244 16.8739C7.67188 16.7013 8.07457 16.6151 8.53054 16.6151C8.99929 16.6151 9.40732 16.6982 9.75462 16.8643C10.104 17.0284 10.3757 17.2564 10.5696 17.5483C10.7635 17.8402 10.8604 18.1747 10.8604 18.5518C10.8604 18.799 10.8114 19.043 10.7134 19.2837C10.6175 19.5245 10.446 19.7919 10.1989 20.0859C9.9517 20.3778 9.60334 20.7283 9.15376 21.1374L8.19815 22.0739V22.1186H10.9467V23.25H6.28054Z" fill="#E0E0E0"/>
<path d="M8.69993 32.3395C8.22266 32.3395 7.79759 32.2575 7.42472 32.0934C7.05398 31.9272 6.76101 31.6992 6.54581 31.4094C6.33274 31.1175 6.22301 30.7809 6.21662 30.3995H7.61009C7.61861 30.5593 7.67081 30.6999 7.76669 30.8214C7.8647 30.9407 7.99467 31.0334 8.15661 31.0994C8.31854 31.1655 8.50071 31.1985 8.70312 31.1985C8.91406 31.1985 9.1005 31.1612 9.26243 31.0866C9.42436 31.0121 9.55114 30.9087 9.64276 30.7766C9.73438 30.6445 9.78018 30.4922 9.78018 30.3196C9.78018 30.1449 9.73118 29.9904 9.63317 29.8562C9.53729 29.7198 9.39879 29.6133 9.21768 29.5366C9.03871 29.4599 8.82564 29.4215 8.57848 29.4215H7.96804V28.4052H8.57848C8.78729 28.4052 8.97159 28.369 9.13139 28.2965C9.29332 28.2241 9.41903 28.1239 9.50852 27.9961C9.59801 27.8661 9.64276 27.7148 9.64276 27.5423C9.64276 27.3782 9.60334 27.2344 9.5245 27.1108C9.4478 26.9851 9.33913 26.8871 9.19851 26.8168C9.06001 26.7464 8.89808 26.7113 8.71271 26.7113C8.52521 26.7113 8.35369 26.7454 8.19815 26.8136C8.04261 26.8796 7.91797 26.9744 7.82422 27.098C7.73047 27.2216 7.6804 27.3665 7.67401 27.5327H6.34766C6.35405 27.1555 6.46165 26.8232 6.67045 26.5355C6.87926 26.2479 7.16051 26.0231 7.5142 25.8612C7.87003 25.6971 8.27166 25.6151 8.71911 25.6151C9.17081 25.6151 9.56605 25.6971 9.90483 25.8612C10.2436 26.0252 10.5067 26.2468 10.6942 26.5259C10.8839 26.8029 10.9776 27.114 10.9755 27.4592C10.9776 27.8256 10.8636 28.1314 10.6335 28.3764C10.4055 28.6214 10.1083 28.777 9.74183 28.843V28.8942C10.2234 28.956 10.5898 29.1232 10.8413 29.396C11.0948 29.6665 11.2205 30.0053 11.2184 30.4123C11.2205 30.7852 11.1129 31.1165 10.8956 31.4062C10.6804 31.696 10.3832 31.924 10.0039 32.0902C9.62464 32.2564 9.18999 32.3395 8.69993 32.3395Z" fill="#E0E0E0"/>
</svg>
