<svg width="39" height="39" viewBox="0 0 39 39" fill="none" xmlns="http://www.w3.org/2000/svg">
<path d="M24.1737 8.29545H26.2873V19.8523C26.2873 21.0455 26.006 22.1108 25.4435 23.0483C24.8867 23.9801 24.0998 24.7159 23.0827 25.2557C22.0657 25.7898 20.8725 26.0568 19.5032 26.0568C18.1339 26.0568 16.9407 25.7898 15.9237 25.2557C14.9066 24.7159 14.1168 23.9801 13.5543 23.0483C12.9975 22.1108 12.7191 21.0455 12.7191 19.8523V8.29545H14.8327V19.6818C14.8327 20.5341 15.0202 21.2926 15.3952 21.9574C15.7702 22.6165 16.3043 23.1364 16.9975 23.517C17.6964 23.892 18.5316 24.0795 19.5032 24.0795C20.4748 24.0795 21.31 23.892 22.0089 23.517C22.7077 23.1364 23.2418 22.6165 23.6112 21.9574C23.9862 21.2926 24.1737 20.5341 24.1737 19.6818V8.29545Z" fill="black"/>
<path d="M10.6055 30.5227H28.4009V32.1591H10.6055V30.5227Z" fill="black"/>
</svg>
